<?xml version="1.0" encoding="utf-8"?>
<!-- Generator: Adobe Illustrator 23.1.1, SVG Export Plug-In . SVG Version: 6.00 Build 0)  -->
<svg version="1.1" id="Layer_1" xmlns="http://www.w3.org/2000/svg" xmlns:xlink="http://www.w3.org/1999/xlink" x="0px" y="0px"
	 viewBox="0 0 702 208" style="enable-background:new 0 0 702 208;" xml:space="preserve">
<style type="text/css">
	.st0{fill:#CD3129;}
	.st1{fill:#5D944B;}
</style>
<g>
	<g>
		<g>
			<path class="st0" d="M63.4,114c-0.4,0-4.9,0-9.7,0.1c1.8-18.6,2.9-40.9,2.9-61.1c0-0.9,0-3.4-0.1-6.1c7.2,0.1,7.7,0.1,9.8,0.1
				c5.3,0,14.3-0.1,19-0.2c6.5-0.1,10.8-0.2,12.2-0.2c7.7,0,12,0.7,15.7,2.8c4.3,2.3,7.1,7.6,7.1,13.6c0,5-1.8,9.7-4.8,12.6
				c-2.1,2-4.1,3-8.3,4.2c4.4,0.6,6.8,1.6,9.3,4c2.8,2.8,4.3,6.9,4.3,11.5c0,8.9-5.2,15.4-14,17.5c-3.2,0.8-13,1.2-29.8,1.2
				L63.4,114z M87.4,97.7c6.7,0,8.9-1.3,8.9-5.3c0-3.3-1.7-4.3-7.8-4.3h-8.8l-0.5,9.7H87.4z M86.6,71.8c3.6,0,5.2-0.1,6.1-0.6
				c1.5-0.6,2.4-2.1,2.4-4c0-3.4-1.8-4.4-7.8-4.4h-6.6l-0.4,9.1H86.6z"/>
			<path class="st0" d="M122.9,114.1c2.5-21.4,3.2-36.4,3.4-67.2c7.7,0.1,7.9,0.1,9,0.1c3.9,0,8.7-0.1,14-0.2
				c5.4-0.1,9.4-0.2,10.8-0.2c11.3,0,17.6,0.8,22.7,2.9c6.1,2.6,9.8,8.7,9.8,16.2c0,9-4.3,15.2-13.3,19.6c2.4,7.5,2.5,8,8.9,25.4
				c0.4,1.2,0.8,2.3,1.1,3.4h-5.1h-8.2h-8.9h-5.3c-0.2-1-0.5-2.1-0.8-3.4c-0.6-2.6-1.2-5.3-1.7-8c-1.9-8-5.2-21.3-6.8-26.7
				c1.9,0.3,2.8,0.4,4.3,0.4c6.2,0,10.1-2.6,10.1-7.1c0-3.8-2.8-5.4-9.5-5.4c-1.1,0-4.1,0.1-7.1,0.2c-0.7,8.3-1.6,34.2-1.7,50h-5.2
				h-7.9h-7.8H122.9z"/>
			<path class="st0" d="M228.3,98.7c-2.3,4.9-4.1,8.9-6.9,15.4c-12.3-0.1-12.5-0.1-14.4-0.1c-2.3,0-3.4,0-14.3,0.1
				c5.7-9.7,7.5-12.8,20.2-36.6c10.2-19.1,11.9-22.3,15.8-30.6c10.9,0.1,12.6,0.1,16.9,0.1c4.8,0,6,0,14.3-0.1
				c8.1,23.4,17.1,48,24.9,67.2c-11-0.1-11.6-0.1-13.6-0.1c-2.5,0-3.4,0-14.1,0.1c-0.7-3.2-2.7-9.5-4.8-15.4H228.3z M248,81.3
				c-2.4-7.8-4.1-13.2-5-16.4c-2.9,6.8-3.6,8.4-7.5,16.4H248z"/>
			<path class="st0" d="M287.3,114.1c1.9-18.6,3.2-43.6,3.2-62.3c0-0.7,0-2.8-0.1-4.9c7.9,0.1,8,0.1,8.9,0.1
				c3.6,0,10.1-0.1,15.1-0.2c6-0.1,10.8-0.2,11.8-0.2c11.9,0,18.5,1.8,24.2,6.7c6,5.2,9.5,14.3,9.5,24.8c0,15.8-7.5,28.8-19.4,33.6
				c-5.2,2-10.3,2.5-26.5,2.5H287.3z M313.5,96.1c1.6,0.1,2.4,0.2,3.8,0.2c6.2,0,10.5-1.5,13.1-4.5c2.5-2.8,4.1-8.2,4.1-13.4
				c0-9.5-4.7-14.1-14.5-14.1c-1.6,0-2.8,0.1-5.1,0.4L313.5,96.1z"/>
			<path class="st0" d="M388.5,114.1c-8-0.1-12.4-0.1-13.1-0.1c-0.2,0-6.9,0-14.1,0.1c2-17,3.4-43.3,3.4-62.3c0-0.7,0-2.8-0.1-4.9
				c15.4,0.1,18.6,0.1,29,0.1c10.6,0,12.9,0,27.7-0.1c-0.8,12.8-0.8,13.2-0.9,18c-6.5-0.2-10.6-0.3-16.3-0.3
				c-3.8,0-7.1,0.1-13.7,0.2l-0.3,6.8c5.7,0.2,8.5,0.2,11.6,0.2c3.7,0,4.7,0,12.6-0.2c-0.1,2.7-0.3,6.2-0.4,8.8
				c-0.1,2.5-0.1,3.6-0.2,9c-6.1-0.2-8.9-0.3-11.7-0.3c-2.9,0-2.9,0-13,0.3c-0.1,3.4-0.2,6.2-0.2,7.6c-0.1,4.2-0.3,12-0.3,15.3
				V114.1z"/>
			<path class="st0" d="M505.6,79.4c0,22.1-16.7,36.2-42.8,36.2c-13.1,0-23.4-3.2-31-9.8c-7.3-6.1-10.4-13.5-10.4-24.3
				c0-11,4.5-20.5,12.8-26.6c8.1-6,18.7-9.3,30.8-9.3C489.7,45.6,505.6,58.8,505.6,79.4z M448.7,81.3c0,9.2,5.9,15.8,14.3,15.8
				c8.4,0,15.1-7.9,15.1-17.5c0-9-6-15.8-14.1-15.8C455.5,63.7,448.7,71.5,448.7,81.3z"/>
			<path class="st0" d="M507,114.1c2.5-21.4,3.2-36.4,3.4-67.2c7.7,0.1,7.9,0.1,9,0.1c3.9,0,8.7-0.1,14-0.2
				c5.4-0.1,9.4-0.2,10.8-0.2c11.3,0,17.6,0.8,22.7,2.9c6.1,2.6,9.8,8.7,9.8,16.2c0,9-4.3,15.2-13.3,19.6c2.4,7.5,2.5,8,8.9,25.4
				c0.4,1.2,0.8,2.3,1.1,3.4h-5.1H560h-8.9h-5.3c-0.2-1-0.5-2.1-0.8-3.4c-0.6-2.6-1.2-5.3-1.7-8c-1.9-8-5.2-21.3-6.8-26.7
				c1.9,0.3,2.8,0.4,4.3,0.4c6.2,0,10.1-2.6,10.1-7.1c0-3.8-2.8-5.4-9.5-5.4c-1.1,0-4.1,0.1-7.1,0.2c-0.7,8.3-1.6,34.2-1.7,50h-5.2
				h-7.9h-7.8H507z"/>
			<path class="st0" d="M578.7,114.1c1.9-18.6,3.2-43.6,3.2-62.3c0-0.7,0-2.8-0.1-4.9c7.9,0.1,8,0.1,8.9,0.1
				c3.6,0,10.1-0.1,15.1-0.2c6-0.1,10.8-0.2,11.8-0.2c11.9,0,18.5,1.8,24.2,6.7c6,5.2,9.5,14.3,9.5,24.8c0,15.8-7.5,28.8-19.4,33.6
				c-5.2,2-10.3,2.5-26.5,2.5H578.7z M604.9,96.1c1.6,0.1,2.4,0.2,3.8,0.2c6.2,0,10.5-1.5,13.1-4.5c2.5-2.8,4.1-8.2,4.1-13.4
				c0-9.5-4.7-14.1-14.5-14.1c-1.6,0-2.8,0.1-5.1,0.4L604.9,96.1z"/>
		</g>
	</g>
	<g>
		<g>
			<g>
				<path class="st0" d="M50.6,132.5c0.1-1.3,0.1-2.4,0.1-3.5c0.2-4.2,0.2-4.6,0.3-8.6c9.2,0.1,11.8,0.1,22.6,0.1
					c10.8,0,13.2,0,22.2-0.1c-0.1,1.1-0.2,3-0.3,5.8c-0.1,2.1-0.1,3.7-0.2,6.2c-6.1-0.3-9.4-0.3-13.7-0.3
					c-0.9,8.4-1.4,19.6-1.5,32.7c-7.1-0.1-7.3-0.1-8.5-0.1c-0.5,0-4.8,0-9.2,0.1c1.3-11.2,1.9-21.2,2.1-32.6c-2.3,0-3.9,0-4.9,0.1
					l-3.9,0.1l-3,0.1L50.6,132.5z"/>
				<path class="st0" d="M95.6,164.7c1.7-14.1,2.1-24,2.3-44.4c5.1,0.1,5.2,0.1,5.9,0.1c2.6,0,5.7-0.1,9.3-0.1
					c3.6-0.1,6.2-0.1,7.1-0.1c7.5,0,11.6,0.5,15,1.9c4.1,1.7,6.5,5.7,6.5,10.7c0,5.9-2.9,10-8.8,12.9c1.6,4.9,1.7,5.3,5.9,16.8
					c0.3,0.8,0.5,1.5,0.7,2.3H136h-5.4h-5.9h-3.5c-0.1-0.7-0.3-1.4-0.5-2.3c-0.4-1.7-0.8-3.5-1.1-5.3c-1.3-5.3-3.5-14-4.5-17.6
					c1.3,0.2,1.9,0.3,2.9,0.3c4.1,0,6.7-1.7,6.7-4.7c0-2.5-1.9-3.6-6.3-3.6c-0.7,0-2.7,0.1-4.7,0.1c-0.5,5.5-1.1,22.6-1.1,33h-3.5
					h-5.2h-5.1H95.6z"/>
				<path class="st0" d="M190.9,120.4c-0.3,4.2-0.9,12.2-1.7,23.6c-0.3,9.8-0.9,12.3-3.7,15.4c-3.7,4.1-11.2,6.4-20.5,6.4
					c-6.9,0-12.2-1.1-16.6-3.4c-4.5-2.4-6.4-5.7-6.4-10.8c0-1.9,0.3-6.1,0.7-10.6c0.3-1.9,0.8-11.1,1.2-20.4
					c6.4,0.1,7.2,0.1,8.9,0.1c1.9,0,2.6,0,8.4-0.1c-0.1,1.7-0.3,4.1-0.5,7.3c-0.9,11.5-1.1,14.4-1.1,18c0,5.6,1.6,7.7,5.8,7.7
					c3.9,0,5.4-1.8,6.1-7.4c0.7-5,1.3-15.1,1.7-25.6c7,0.1,7,0.1,8.8,0.1l5.3-0.1H190.9z"/>
				<path class="st0" d="M233.3,131.3c0,0.3,0,0.9,0.1,1.9c-5.1-1.1-7.7-1.4-10.3-1.4c-8.1,0-14.1,5.1-14.1,12
					c0,5.9,4.5,9.6,11.7,9.6c3.4,0,6.4-0.4,11.8-1.7c-0.6,3.1-1.8,10.4-2.1,12.9c-4.9,0.6-9,0.9-12.8,0.9c-7.1,0-12.6-1.5-17.4-4.7
					c-5.8-3.9-8.5-9.3-8.5-17c0-7.2,2.6-13.2,7.5-17.4c5.4-4.6,12.7-7,21-7c3.3,0,6.7,0.3,12.6,1.3l0.1,2.1c0.1,1.9,0.1,3.7,0.1,4.3
					L233.3,131.3z"/>
				<path class="st0" d="M242.8,164.7c-0.5,0-4.8,0-9.1,0.1c1.1-8,2.5-33.2,2.5-44.4c7.3,0.1,7.6,0.1,9,0.1c1.1,0,1.9,0,8.9-0.1
					c-0.1,1.4-0.1,2.6-0.1,3c-0.1,1.2-0.4,5.3-0.8,11.1c-0.8,10.2-1.2,18.2-1.6,30.3L242.8,164.7z M266.7,120.4
					c8.4,0.1,8.4,0.1,9.6,0.1c0.2,0,4.9,0,9.9-0.1c-7.5,10-12.6,17-15.4,20.9c2.9,4.9,6,10,14.5,23.5c-7.8-0.1-8.7-0.1-10.5-0.1
					c-2.3,0-3,0-10.1,0.1c-4.1-8.9-4.6-9.8-11.8-23.4C261.1,129.3,264.5,124.1,266.7,120.4z"/>
				<path class="st0" d="M328.7,139.7h4.7h4.9h2.1v0.7c0,6-1.5,10.8-4.7,14.8c2.3,2.9,3.2,4,4.1,5.1l2.2,2.7
					c0.1,0.2,0.7,0.9,1.3,1.7c-5.9-0.1-6.9-0.1-9.5-0.1c-2.8,0-3.5,0-8.2,0.1l-1.7-2.7c-4.4,2.6-7.9,3.6-12.7,3.6
					c-5,0-9.8-1.5-12.9-3.9c-3-2.4-4.9-6.7-4.9-10.9c0-6.7,3.5-11,11.8-15.1c-1.1-2-1.5-3.4-1.5-5.2c0-3.1,1.4-5.9,3.9-7.9
					c2.9-2.3,5.7-3.1,11.1-3.1c4.3,0,7.5,0.3,12,1.1c0.1,2.6,0.1,3.5,0.2,6.5c0,1.5,0,2.7,0.1,3.7c0,0.3,0,1.1,0.1,2.1
					c-3-1.1-4.9-1.5-6.9-1.5c-2.5,0-3.7,0.8-3.7,2.4c0,1.5,1.5,4.1,4.7,8.5c0.4,0.6,0.9,1.2,1.3,1.8l0.1-4.4H328.7z M311.8,146.2
					c-2.1,1.3-2.9,2.5-2.9,4.3c0,2.1,1.6,3.7,3.9,3.7c1.3,0,2.1-0.3,3.6-1.5C315.2,150.8,314.5,149.8,311.8,146.2z"/>
				<path class="st0" d="M359.9,164.7c-0.3,0-3.3,0-6.4,0.1c1.2-12.3,1.9-27,1.9-40.3c0-0.6,0-2.3-0.1-4.1c4.7,0.1,5.1,0.1,6.5,0.1
					c3.5,0,9.4-0.1,12.5-0.1c4.3-0.1,7.1-0.1,8.1-0.1c5.1,0,7.9,0.5,10.4,1.9c2.9,1.5,4.7,5,4.7,9c0,3.3-1.2,6.4-3.2,8.3
					c-1.4,1.3-2.7,2-5.5,2.8c2.9,0.4,4.5,1.1,6.1,2.7c1.9,1.9,2.9,4.5,2.9,7.6c0,5.9-3.5,10.2-9.3,11.6c-2.1,0.5-8.6,0.8-19.7,0.8
					L359.9,164.7z M375.7,153.9c4.4,0,5.9-0.9,5.9-3.5c0-2.2-1.1-2.9-5.1-2.9h-5.8l-0.3,6.4H375.7z M375.2,136.8
					c2.4,0,3.5-0.1,4.1-0.4c1-0.4,1.6-1.4,1.6-2.7c0-2.3-1.2-2.9-5.1-2.9h-4.3l-0.3,6H375.2z"/>
				<path class="st0" d="M448.6,120.4c-0.3,4.2-0.9,12.2-1.7,23.6c-0.3,9.8-0.9,12.3-3.7,15.4c-3.7,4.1-11.2,6.4-20.5,6.4
					c-6.9,0-12.2-1.1-16.6-3.4c-4.5-2.4-6.4-5.7-6.4-10.8c0-1.9,0.3-6.1,0.7-10.6c0.3-1.9,0.8-11.1,1.2-20.4
					c6.4,0.1,7.2,0.1,8.9,0.1c1.9,0,2.6,0,8.4-0.1c-0.1,1.7-0.3,4.1-0.5,7.3c-0.9,11.5-1.1,14.4-1.1,18c0,5.6,1.6,7.7,5.8,7.7
					c3.9,0,5.4-1.8,6.1-7.4c0.7-5,1.3-15.1,1.7-25.6c7,0.1,7,0.1,8.8,0.1l5.3-0.1H448.6z"/>
				<path class="st0" d="M448.9,150.9c4.7,2,8.3,2.9,11.6,2.9c2.9,0,4.1-0.6,4.1-1.9c0-1.2-0.3-1.6-3.4-4.2
					c-0.7-0.5-1.6-1.3-2.7-2.3c-0.4-0.3-0.4-0.3-2.5-2.2c-4.4-3.7-6.1-6.6-6.1-10.4c0-3.8,2.1-7.6,5.3-9.8c3.5-2.3,7.7-3.4,13.7-3.4
					c4.3,0,8.3,0.4,13.3,1.4c0.2,4.3,0.4,6.5,1,12.8c-3.7-1.5-6.9-2.3-9.9-2.3c-2.3,0-3.8,0.8-3.8,2.1c0,1.2,1.1,2.4,4.6,5.1
					c4.9,3.7,5.9,4.7,7.5,6.9c1.6,2.1,2.3,4.1,2.3,6.3c0,3.2-1.5,6.5-3.9,8.9c-3.3,3.2-8.7,4.9-15.6,4.9c-3.8,0-8.3-0.5-14.2-1.3
					C449.7,157.8,449.4,154.6,448.9,150.9z"/>
			</g>
		</g>
		<g>
			<path class="st0" d="M497.5,120.6l-1.9,44.2h152.8l1.9-44.2H497.5z M527.2,151.6c-3.8,0-4.7,0-8.2,0c-3.5,0-4.3,0-8.3,0
				c0.7-5.7,1.2-13.2,1.2-19.5c2.5,0,2.9,0,4,0c1,0,1.3,0,3.9,0c-0.1,1.7-0.2,2-0.2,3.1c-0.1,0.9-0.2,3.3-0.4,7.2l-0.1,2.4
				c0,0.3,0,1,0,1.5c1.5,0,2.3,0.1,3.2,0.1c1.9,0,4.1,0,5.5-0.1C527.4,149.2,527.4,149.5,527.2,151.6z M536.9,151.6l-3.8,0
				c-0.4,0-0.8,0-4.2,0c0.7-10.1,0.9-13.1,0.9-17c0-0.6,0-1.5,0-2.6c3.5,0,3.5,0,4,0c0.2,0,2,0,3.9,0
				C537.1,138.5,536.8,145.5,536.9,151.6z M563.4,149.8v1.8c-2.3,0-2.7,0-3.3,0c-0.8,0-1,0-3.2,0c0.2-2.8,0.5-9.1,0.5-11
				c0-0.4,0-0.9,0-1.6l-0.9,3.3c-0.3,1.1-0.6,2.1-0.8,2.9c-0.2,0.7-0.4,1.5-0.6,2.2c-0.4,1.3-0.5,1.8-1.2,4.2c-2.3,0-2.6,0-3.1,0
				s-0.8,0-3.2,0c-0.3-1.9-0.3-2.1-0.5-3.3c-0.2-1-0.2-1.2-0.9-5c-0.4-2-0.5-2.6-0.7-4.4c-0.4,3.2-0.7,8-0.8,12.7
				c-2.6,0-2.7,0-3.1,0c-0.5,0-0.7,0-3.1,0c0.6-4.7,1.2-11.2,1.6-18.1c0-0.1,0.1-0.6,0.1-1.4c2.9,0,3.5,0,4.9,0c1.5,0,1.9,0,4.8,0
				c0.3,2,0.3,2,0.6,4.1c0.4,2.7,0.7,4.3,0.9,6.3c0.4-1.7,0.6-2.8,1.4-5.6c0.2-0.8,0.4-1.6,0.6-2.3c0.2-0.8,0.4-1.6,0.7-2.5
				c2.5,0,3,0,4.7,0c1.8,0,2.3,0,5.2,0C563.7,137.9,563.4,146,563.4,149.8z M573.2,151.6l-3.8,0c-0.4,0-0.8,0-4.2,0
				c0.7-10.1,0.9-13.1,0.9-17c0-0.6,0-1.5,0-2.6c3.5,0,3.5,0,4,0c0.2,0,2,0,3.9,0C573.4,138.5,573.1,145.5,573.2,151.6z
				 M595.2,134.6c-0.1,0.9-0.1,1.6-0.1,2.7c-2.7-0.1-4.1-0.1-6-0.1c-0.4,3.7-0.6,8.6-0.7,14.4c-3.1,0-3.2,0-3.7,0c-0.2,0-2.1,0-4,0
				c0.6-4.9,0.8-9.3,0.9-14.4c-1,0-1.7,0-2.1,0l-1.7,0l-1.3,0.1l-0.9,0c0-0.6,0-1.1,0.1-1.6c0.1-1.8,0.1-2,0.1-3.8c4,0,5.2,0,10,0
				c4.7,0,5.8,0,9.8,0C595.3,132.5,595.2,133.4,595.2,134.6z M614.1,132.8c-0.1,2.5-0.2,4-0.2,4.5c-2.5-0.1-3.8-0.1-5.4-0.1
				c-1.3,0-2.2,0-4.1,0.1l-0.1,1.9c1.6,0,2.3,0,3.1,0c1,0,1.1,0,4.8-0.1c-0.1,1.6-0.2,3.4-0.4,5.3c-2.5,0-2.6,0-3.1,0
				c-1.6,0-2.7,0-4.8,0.1l-0.1,2h1.6c1.8,0,6-0.1,8.2-0.3c-0.1,1.2-0.3,3.8-0.4,5.3c-3.3-0.1-4.2-0.1-7.8-0.1c-4.2,0-5.2,0-9.5,0.1
				c0.7-6.2,1-12.1,1.1-19.5c3.3,0,4.2,0,8.2,0c4.5,0,5.4,0,9.1,0C614.2,132.5,614.1,132.7,614.1,132.8z M630.3,150.8
				c-1.5,0.6-3,0.7-7.7,0.7h-7.8c0.6-5.4,0.9-12.7,0.9-18.1c0-0.2,0-0.8,0-1.4c2.3,0,2.3,0,2.6,0c1.1,0,2.9,0,4.4-0.1
				c1.8,0,3.1-0.1,3.4-0.1c3.5,0,5.4,0.5,7,1.9c1.8,1.5,2.8,4.2,2.8,7.2C635.9,145.7,633.7,149.5,630.3,150.8z"/>
			<path class="st0" d="M624.3,137.1c-0.5,0-0.8,0-1.5,0.1l-0.4,9.1c0.5,0,0.7,0.1,1.1,0.1c1.8,0,3-0.4,3.8-1.3
				c0.7-0.8,1.2-2.4,1.2-3.9C628.5,138.4,627.2,137.1,624.3,137.1z"/>
		</g>
	</g>
</g>
<g>
	<g>
		<path class="st1" d="M681,203.8H20.9c-8.5,0-15.5-7-15.5-15.5V22.9c0-8.5,7-15.5,15.5-15.5H681c8.5,0,15.5,7,15.5,15.5v165.4
			C696.5,196.9,689.5,203.8,681,203.8z M20.9,14.4c-4.7,0-8.5,3.8-8.5,8.5v165.4c0,4.7,3.8,8.5,8.5,8.5H681c4.7,0,8.5-3.8,8.5-8.5
			V22.9c0-4.7-3.8-8.5-8.5-8.5H20.9z"/>
	</g>
</g>
</svg>
